<?xml version="1.0" encoding="UTF-8"?>
<!DOCTYPE svg PUBLIC "-//W3C//DTD SVG 1.1//EN" "http://www.w3.org/Graphics/SVG/1.1/DTD/svg11.dtd">
<svg xmlns="http://www.w3.org/2000/svg" version="1.1" width="96px" height="96px" style="shape-rendering:geometricPrecision; text-rendering:geometricPrecision; image-rendering:optimizeQuality; fill-rule:evenodd; clip-rule:evenodd" xmlns:xlink="http://www.w3.org/1999/xlink">
<g><path style="opacity:0.903" fill="#000000" d="M 13.5,15.5 C 20.175,15.3337 26.8417,15.5004 33.5,16C 35.286,16.7845 36.786,17.9512 38,19.5C 39.6326,34.0733 39.966,48.7399 39,63.5C 33.0988,77.3691 22.5988,82.7024 7.5,79.5C 7.5,77.5 7.5,75.5 7.5,73.5C 26.1667,74.8333 34.8333,66.1667 33.5,47.5C 11.0056,52.5058 2.50559,43.8392 8,21.5C 9.35968,18.9774 11.193,16.9774 13.5,15.5 Z M 18.5,21.5 C 23.2062,21.0852 27.7062,21.7518 32,23.5C 37,40.1667 31.3333,45.5 15,39.5C 13,34.1667 13,28.8333 15,23.5C 16.3024,22.9152 17.469,22.2485 18.5,21.5 Z"/></g>
<g><path style="opacity:0.903" fill="#000000" d="M 61.5,15.5 C 68.175,15.3337 74.8417,15.5004 81.5,16C 83.286,16.7845 84.786,17.9512 86,19.5C 87.6326,34.0733 87.966,48.7399 87,63.5C 81.0988,77.3691 70.5988,82.7024 55.5,79.5C 55.5,77.5 55.5,75.5 55.5,73.5C 74.1667,74.8333 82.8333,66.1667 81.5,47.5C 59.0056,52.5058 50.5056,43.8392 56,21.5C 57.3597,18.9774 59.193,16.9774 61.5,15.5 Z M 66.5,21.5 C 71.2062,21.0852 75.7062,21.7518 80,23.5C 85,40.1667 79.3333,45.5 63,39.5C 61,34.1667 61,28.8333 63,23.5C 64.3024,22.9152 65.469,22.2485 66.5,21.5 Z"/></g>
</svg>
